<?xml version="1.0" standalone="no"?>
<!DOCTYPE svg PUBLIC "-//W3C//DTD SVG 20010904//EN"
 "http://www.w3.org/TR/2001/REC-SVG-20010904/DTD/svg10.dtd">
<svg version="1.0" xmlns="http://www.w3.org/2000/svg"
 width="500.000000pt" height="500.000000pt" viewBox="0 0 500.000000 500.000000"
 preserveAspectRatio="xMidYMid meet">

<g transform="translate(0.000000,500.000000) scale(0.100000,-0.100000)"
fill="#000000" stroke="none">
<path d="M2460 4813 c-19 -8 -29 -17 -23 -20 15 -6 80 15 88 28 9 14 -26 10
-65 -8z"/>
<path d="M2613 4759 c-43 -13 -49 -26 -19 -41 14 -6 26 -14 26 -18 0 -3 -26
-17 -57 -30 -70 -28 -82 -37 -59 -46 10 -4 26 1 39 13 12 11 69 32 127 47 58
15 113 32 122 37 10 5 23 9 30 9 24 0 133 -57 153 -80 11 -12 40 -36 65 -53
25 -16 61 -45 82 -65 20 -19 42 -32 50 -30 30 11 -181 188 -288 242 -45 23
-64 26 -145 25 -52 0 -108 -5 -126 -10z"/>
<path d="M3290 4727 c0 -12 10 -42 21 -67 16 -36 18 -49 9 -66 -9 -16 -9 -35
0 -78 13 -62 13 -65 3 -68 -4 -2 -22 22 -40 52 -34 57 -45 47 -18 -17 8 -19
15 -45 15 -57 0 -12 14 -38 31 -59 46 -56 59 -39 59 77 0 50 -4 107 -9 126 -5
19 -12 51 -15 70 l-6 35 20 -30 c30 -45 58 -141 66 -225 8 -85 41 -160 100
-225 25 -28 31 -32 20 -13 -9 15 -16 41 -16 57 0 17 -10 54 -21 83 -12 29 -23
73 -24 98 -1 25 -3 55 -4 67 0 12 -10 31 -21 41 -11 10 -31 47 -46 81 -30 76
-63 123 -81 117 -7 -3 -13 -1 -13 3 0 5 -7 11 -15 15 -11 4 -15 -1 -15 -17z"/>
<path d="M2605 4627 c-182 -50 -289 -143 -414 -364 -23 -40 -41 -75 -41 -78 0
-3 9 -5 20 -5 24 0 23 2 8 -41 -17 -50 -56 -109 -72 -109 -12 0 -13 6 -4 33
21 68 21 73 -4 42 -55 -72 -112 -125 -133 -125 -12 0 -53 23 -91 51 -91 66
-147 92 -185 84 -101 -22 -234 -172 -330 -370 -60 -126 -77 -176 -68 -201 18
-46 0 -135 -37 -175 -21 -24 -36 -8 -28 31 5 23 4 23 -12 -5 -24 -43 -45 -65
-62 -65 -8 0 -44 14 -79 30 -34 17 -69 30 -77 30 -61 0 -168 -95 -216 -193
-63 -129 -70 -183 -70 -568 0 -407 4 -393 -89 -335 -33 20 -67 36 -78 36 -53
0 -100 -76 -128 -210 -29 -136 -10 -354 43 -500 24 -66 141 -310 183 -382 27
-46 29 -54 18 -82 -18 -47 -23 -49 -62 -26 -31 18 -47 43 -101 156 -36 74 -70
134 -76 134 -16 0 -40 63 -40 104 0 37 -25 100 -49 126 -13 13 -12 15 2 18 28
6 20 26 -40 103 -31 41 -73 107 -93 147 -27 53 -39 69 -44 57 -11 -31 -6 -64
19 -121 26 -58 59 -173 52 -180 -13 -13 -87 174 -87 222 0 11 -9 29 -20 39
-20 18 -20 17 -20 -9 0 -73 67 -254 126 -342 28 -41 50 -101 40 -111 -9 -10
-110 45 -138 74 -12 13 -27 23 -34 23 -20 0 -23 -23 -6 -43 13 -15 14 -22 4
-38 -11 -17 -8 -23 25 -51 70 -59 154 -150 174 -189 10 -21 41 -56 68 -77 55
-42 74 -72 77 -120 1 -25 -2 -30 -12 -21 -16 13 -57 2 -51 -14 2 -6 39 -39 83
-73 65 -51 79 -66 80 -90 1 -47 17 -64 73 -79 63 -16 78 -28 86 -66 9 -39 47
-64 157 -104 172 -61 223 -82 323 -133 125 -62 278 -112 370 -119 39 -3 79
-11 90 -18 12 -7 63 -23 115 -35 52 -12 176 -41 275 -65 99 -24 197 -46 217
-50 20 -3 72 -22 115 -42 64 -30 90 -37 143 -38 60 0 70 3 135 44 l70 44 142
7 c100 6 164 15 218 31 l77 22 -24 18 -23 18 38 16 c46 19 73 16 69 -7 -2 -14
6 -13 60 7 35 13 142 43 238 66 187 45 208 52 275 104 46 35 106 60 167 70 20
3 59 20 85 38 135 91 262 157 338 177 44 11 88 23 99 26 16 5 17 13 11 68 l-6
62 53 40 c33 24 61 55 74 82 12 26 42 60 77 88 65 51 133 133 182 219 34 60
61 142 33 101 -7 -11 -25 -33 -40 -50 l-27 -31 -1 33 c0 18 13 59 30 92 16 32
48 104 70 159 39 95 41 106 41 208 0 60 -4 119 -9 133 l-10 25 -14 -33 -14
-32 -13 50 c-7 27 -16 50 -20 50 -5 0 -11 -35 -14 -78 -8 -99 -28 -177 -71
-271 -19 -42 -41 -93 -48 -115 -7 -21 -28 -55 -46 -75 l-33 -36 5 55 5 55 -24
-47 c-14 -30 -23 -65 -23 -92 l1 -43 46 5 c66 6 94 22 114 66 10 21 20 36 23
33 8 -8 -66 -150 -88 -169 -34 -29 -77 -33 -103 -8 l-22 21 -27 -32 c-15 -17
-36 -49 -46 -70 -18 -33 -30 -54 -83 -132 -34 -51 -32 -51 -48 -26 -26 40 -39
107 -23 120 16 13 116 176 166 269 81 151 120 337 99 471 -22 143 -61 201
-243 366 -32 28 -58 48 -58 43 0 -22 24 -67 48 -92 14 -16 20 -28 13 -28 -18
0 -71 59 -87 97 -31 72 -7 214 25 154 6 -11 11 -28 11 -38 1 -28 47 33 65 86
21 62 20 168 -2 208 -10 17 -54 72 -98 122 -44 50 -95 119 -112 153 l-33 63
-6 -33 c-5 -24 -9 -30 -15 -20 -10 16 -10 93 1 128 l7 25 12 -30 13 -30 18 23
c58 71 86 241 57 340 -28 94 -96 171 -195 221 -23 12 -86 33 -140 48 -84 23
-116 26 -243 26 -91 0 -153 -5 -167 -12 -12 -6 -43 -13 -69 -15 -34 -3 -49 -9
-51 -20 -5 -23 -19 -20 -38 9 -22 33 -12 81 24 120 l27 30 5 -45 5 -45 38 75
c58 117 68 221 25 282 -10 15 -65 64 -121 108 -56 44 -140 112 -187 151 -170
141 -237 184 -337 214 -65 20 -133 17 -228 -8z m340 -91 c28 -13 66 -40 84
-60 36 -38 36 -45 -2 -22 -79 48 -157 99 -157 102 0 10 29 2 75 -20z m-167
-12 c7 -2 11 -8 8 -12 -5 -9 -98 -5 -126 5 -45 16 69 23 118 7z m-47 -179 c55
-19 110 -71 141 -133 18 -36 23 -63 22 -117 -1 -86 -23 -138 -93 -218 -50 -57
-81 -107 -96 -156 l-7 -23 33 23 c19 13 38 29 44 35 5 5 27 23 48 38 46 34 56
20 33 -48 -18 -52 -21 -106 -6 -106 5 0 27 26 49 58 21 31 67 84 102 117 34
33 70 78 80 100 23 49 24 126 4 165 -9 17 -11 30 -6 30 12 0 86 -109 106 -157
22 -52 24 -168 4 -213 -50 -109 -52 -143 -11 -192 48 -59 78 -78 144 -92 14
-3 40 -19 56 -35 47 -48 148 -108 202 -121 l50 -12 0 -55 c0 -52 12 -93 28
-93 5 0 16 15 24 34 9 19 43 62 75 97 32 35 64 74 71 86 15 28 16 117 1 145
-6 11 -8 22 -6 25 12 11 97 -121 116 -181 28 -87 27 -164 -6 -283 -38 -139
-38 -263 0 -352 29 -69 52 -101 73 -101 15 0 34 60 34 107 0 48 17 49 23 0 3
-23 17 -76 32 -117 23 -62 27 -91 27 -170 0 -100 -8 -135 -63 -256 -23 -51
-32 -65 -41 -56 -8 8 -75 12 -218 13 -113 1 -230 4 -260 8 -69 8 -138 -5 -169
-33 -14 -12 -21 -15 -17 -6 4 8 -1 5 -11 -6 l-19 -22 -30 22 c-16 11 -35 26
-42 33 -7 7 -31 13 -53 13 -27 0 -46 7 -61 23 -13 12 -26 21 -31 19 -4 -1 -6
4 -5 10 2 7 -4 12 -13 10 -17 -2 -43 43 -34 59 4 5 1 9 -4 9 -6 0 -11 -4 -11
-9 0 -5 -11 -4 -25 2 -14 7 -25 19 -25 28 0 11 -12 18 -38 22 -22 2 -61 20
-88 40 -27 19 -71 39 -99 45 -100 21 -169 -15 -262 -135 -109 -141 -89 -128
-197 -131 -53 -2 -96 0 -96 5 0 4 -60 8 -134 7 -108 0 -139 -4 -160 -17 -14
-9 -30 -17 -35 -17 -5 0 -12 -6 -14 -12 -4 -10 -8 -9 -16 2 -9 13 -11 13 -11
-1 0 -11 -17 -18 -60 -25 -52 -9 -60 -8 -60 5 -1 13 -4 12 -16 -4 -15 -19 -16
-19 -27 -2 -31 48 -36 51 -108 60 -41 5 -103 8 -139 7 -36 -2 -123 -3 -193 -4
l-129 -1 -25 29 c-21 25 -23 34 -16 70 15 74 6 162 -21 221 -29 64 -25 101 10
77 6 -4 14 -16 17 -26 14 -36 20 -6 7 33 -21 64 -9 184 26 261 24 54 29 78 29
141 0 59 -4 81 -17 96 -10 11 -18 25 -18 32 0 21 57 -17 130 -86 92 -87 128
-105 194 -100 52 4 124 33 161 65 61 51 72 119 30 187 -65 108 -68 115 -63
189 6 81 22 119 98 221 71 96 91 139 97 207 6 57 6 58 24 37 17 -20 39 -99 39
-142 0 -24 23 -64 48 -84 36 -30 110 -8 187 55 30 25 117 143 145 196 22 42
98 124 140 151 20 13 83 37 141 54 57 17 124 44 149 59 51 31 88 90 89 140 1
42 -34 117 -62 130 -21 10 -20 11 9 11 17 1 51 -6 75 -14z m-1143 -352 c-21
-20 -40 -34 -44 -30 -9 9 13 34 45 51 39 21 39 19 -1 -21z m242 -8 c14 -8 21
-14 15 -14 -5 0 -21 6 -35 14 -14 8 -20 14 -15 14 6 0 21 -6 35 -14z m1665
-282 c-21 -15 -75 -18 -75 -4 0 11 71 30 84 23 5 -3 1 -11 -9 -19z m-1987
-513 c-5 -49 -28 -51 -28 -2 0 21 3 42 7 46 13 12 24 -12 21 -44z m2798 -387
c20 -27 16 -38 -6 -18 -20 18 -26 35 -14 35 4 0 13 -8 20 -17z m-3521 -205 c4
-61 3 -98 -3 -98 -12 0 -22 75 -21 164 0 97 14 58 24 -66z m219 -296 c-5 -33
2 -73 32 -169 5 -17 2 -23 -9 -23 -9 0 -22 -9 -31 -21 l-14 -21 -12 23 c-16
29 -6 152 16 208 20 51 26 52 18 3z m-464 -45 c0 -15 -60 -100 -67 -94 -5 6
23 76 38 94 14 17 29 17 29 0z m200 -18 c10 -23 10 -33 1 -42 -10 -9 -16 -8
-27 7 -15 21 -18 48 -7 59 12 13 21 7 33 -24z m835 -226 c10 -27 22 -61 27
-78 6 -16 14 -39 19 -50 5 -11 47 -128 95 -260 47 -132 92 -258 100 -280 8
-22 30 -85 49 -140 19 -55 50 -144 69 -199 20 -54 33 -102 30 -107 -9 -15
-350 -11 -361 4 -5 6 -25 58 -43 115 l-33 102 -212 0 -212 0 -28 -78 c-15 -42
-35 -94 -44 -114 l-16 -38 -177 0 c-104 0 -178 4 -178 9 0 10 20 59 90 226 21
50 56 135 78 190 45 113 224 538 253 602 10 23 19 44 19 46 0 3 9 25 20 51
l21 46 209 0 208 0 17 -47z m789 2 c-4 -124 -6 -417 -2 -420 2 -2 47 51 101
118 109 137 192 242 244 305 l35 42 184 0 c141 0 184 -3 184 -12 0 -7 -15 -32
-33 -55 -62 -82 -236 -299 -306 -383 -39 -47 -70 -90 -71 -96 0 -7 19 -34 43
-60 23 -27 60 -71 82 -99 22 -27 42 -52 45 -55 3 -3 49 -59 102 -126 85 -106
97 -126 100 -165 l3 -44 12 45 c13 52 9 42 177 458 69 172 139 342 156 378 16
36 30 69 30 74 0 4 13 38 30 74 l29 66 208 -2 207 -3 59 -155 c32 -85 65 -171
72 -190 8 -19 37 -98 65 -175 29 -77 62 -167 75 -200 77 -197 155 -413 155
-428 0 -15 -17 -17 -185 -17 -140 0 -187 3 -189 13 -2 6 -19 58 -37 115 l-33
102 -213 0 c-158 0 -214 -3 -220 -12 -4 -7 -23 -58 -43 -113 l-37 -100 -319 0
-319 0 -85 111 c-47 62 -125 163 -174 225 -49 63 -98 129 -109 147 -10 17 -23
32 -28 32 -5 0 -10 -116 -11 -257 l-3 -258 -173 -3 c-155 -2 -173 -1 -179 15
-4 9 -1 156 5 327 7 171 15 427 19 569 l6 257 171 -2 171 -3 -1 -40z m1875
-80 c1 -56 -21 -148 -40 -171 -16 -19 -24 -6 -34 53 -4 29 -16 50 -34 65 l-27
23 39 28 c24 18 47 47 60 77 l22 48 7 -37 c4 -20 7 -58 7 -86z m626 -319 c-9
-31 -19 -56 -22 -56 -7 0 8 82 19 103 18 34 19 10 3 -47z m-4310 -58 c17 -33
75 -168 75 -174 0 -2 -3 -4 -7 -4 -15 0 -55 69 -67 117 -7 26 -16 58 -20 71
-11 32 0 27 19 -10z m3955 -23 c0 -46 -75 -185 -101 -185 -14 0 -11 15 18 77
52 110 83 151 83 108z m-4159 -177 c39 -40 54 -68 36 -68 -11 0 -168 127 -207
167 -3 3 28 -11 68 -32 40 -20 86 -51 103 -67z m4399 -52 c0 -37 -118 -152
-136 -133 -5 5 124 147 132 147 2 0 4 -6 4 -14z m-4222 -174 c3 -17 -2 -22
-17 -22 -14 0 -21 6 -21 18 0 38 33 41 38 4z m3962 -32 c0 -5 -2 -10 -4 -10
-3 0 -8 5 -11 10 -3 6 -1 10 4 10 6 0 11 -4 11 -10z m-3230 -315 c19 -11 76
-38 125 -60 50 -21 109 -50 133 -63 24 -13 45 -22 48 -19 3 3 -2 19 -11 36 -8
17 -12 31 -7 31 5 0 36 -21 69 -47 34 -27 96 -70 139 -98 44 -27 85 -55 92
-62 8 -7 23 -18 34 -24 11 -6 80 -53 153 -105 73 -52 137 -94 142 -94 14 0 83
-50 83 -60 0 -6 -7 -10 -15 -10 -17 0 -243 97 -265 114 -27 20 -60 36 -108 52
-26 9 -60 22 -77 29 -16 7 -52 21 -80 31 -60 22 -119 57 -160 96 -16 16 -59
44 -96 62 -75 37 -130 76 -124 87 3 4 -5 10 -18 13 -12 3 -56 38 -97 77 -70
66 -72 69 -35 52 22 -9 56 -27 75 -38z m2519 -8 c-31 -29 -61 -62 -68 -75 -7
-12 -17 -20 -22 -16 -16 10 -64 -15 -74 -39 -6 -12 -34 -34 -63 -50 -30 -15
-72 -42 -93 -61 -60 -51 -146 -93 -282 -138 -143 -47 -154 -52 -187 -88 -26
-28 -164 -80 -215 -80 -32 0 -33 25 -2 41 12 7 40 24 62 38 22 14 58 33 80 42
22 8 95 57 162 107 68 51 125 92 127 92 3 0 57 31 119 68 83 49 113 63 109 50
-6 -25 9 -23 76 11 31 15 80 36 107 46 28 10 86 38 130 61 44 23 82 43 85 43
3 0 -20 -23 -51 -52z m-1531 -139 c43 -94 78 -146 113 -163 28 -15 32 -15 48
-1 27 25 78 20 124 -13 23 -16 58 -35 78 -42 34 -11 42 -9 126 30 50 23 97 39
104 37 8 -2 27 -7 42 -10 l28 -7 -21 -29 c-26 -37 -194 -163 -307 -231 -59
-36 -89 -48 -104 -44 -26 8 -291 185 -384 257 -80 61 -92 85 -46 94 17 4 31
13 31 20 0 8 9 14 20 14 25 0 25 2 1 48 -10 20 -21 49 -25 64 -5 24 -3 27 26
31 18 2 52 5 75 5 l43 2 28 -62z m-1349 34 c3 -5 13 -12 21 -16 8 -3 -7 -4
-34 -2 -28 2 -55 11 -65 21 -15 16 -13 17 28 12 24 -3 47 -10 50 -15z m160
-67 c40 -19 78 -35 84 -35 17 -1 101 -40 96 -45 -13 -12 -279 93 -279 110 0
12 31 2 99 -30z m301 -105 c0 -5 -2 -10 -4 -10 -3 0 -8 5 -11 10 -3 6 -1 10 4
10 6 0 11 -4 11 -10z m2290 0 c-8 -5 -22 -9 -30 -9 -10 0 -8 3 5 9 27 12 43
12 25 0z"/>
<path d="M3071 2234 c0 -11 3 -14 6 -6 3 7 2 16 -1 19 -3 4 -6 -2 -5 -13z"/>
<path d="M1282 1628 c-22 -68 -50 -148 -61 -178 -12 -30 -21 -60 -21 -67 0
-10 30 -13 119 -13 66 0 122 4 125 8 2 4 -6 41 -19 82 -47 149 -73 236 -79
263 -4 15 -10 27 -14 27 -5 0 -27 -55 -50 -122z"/>
<path d="M3632 1572 c-34 -103 -62 -190 -62 -194 0 -5 56 -8 125 -8 69 0 125
3 125 8 0 4 -14 50 -30 102 -17 52 -42 133 -57 180 -15 47 -29 88 -33 92 -3 5
-34 -76 -68 -180z"/>
<path d="M2111 4440 c-24 -20 -37 -26 -42 -18 -9 14 -67 -50 -91 -100 -10 -21
-18 -54 -18 -74 0 -31 -3 -36 -17 -31 -14 5 -15 1 -10 -36 5 -38 3 -44 -29
-69 -19 -15 -34 -30 -34 -34 0 -13 44 -8 64 7 11 8 29 12 40 9 27 -6 129 90
122 115 -18 60 -16 71 22 165 22 53 37 96 33 96 -3 -1 -22 -14 -40 -30z m-76
-182 c-7 -75 -18 -108 -37 -108 -6 0 -8 11 -4 28 3 15 11 55 18 90 16 87 32
80 23 -10z"/>
<path d="M3628 4349 c-27 -15 -22 -41 16 -85 40 -47 66 -96 66 -124 0 -40 -40
-99 -100 -146 -51 -40 -60 -52 -60 -79 0 -17 9 -40 19 -52 17 -18 26 -19 71
-12 30 5 59 4 68 -1 20 -11 208 -55 272 -65 52 -7 47 4 -7 16 -123 26 -223 83
-223 127 0 11 14 37 31 58 29 37 31 43 26 103 -5 62 -32 119 -55 114 -5 -1
-15 9 -22 22 -8 15 -22 25 -35 25 -43 0 -64 57 -25 67 24 6 26 28 4 37 -21 8
-26 7 -46 -5z m136 -246 c5 -36 2 -49 -22 -85 -39 -58 -77 -119 -91 -143 -8
-15 -10 -16 -11 -4 0 26 20 80 61 161 22 42 39 91 39 110 1 43 15 19 24 -39z"/>
<path d="M2135 4159 c-4 -6 -5 -12 -2 -15 2 -3 7 2 10 11 7 17 1 20 -8 4z"/>
<path d="M1560 4100 c-8 -5 -12 -11 -9 -14 3 -3 14 1 25 9 21 16 8 20 -16 5z"/>
<path d="M1488 4050 c-22 -17 -76 -92 -132 -183 -9 -16 -16 -33 -13 -40 2 -6
15 13 30 43 15 32 53 81 92 119 36 35 65 68 65 73 0 13 -16 9 -42 -12z"/>
<path d="M1150 3753 c-68 -64 -120 -135 -120 -162 0 -7 -7 -29 -17 -48 -12
-26 -31 -42 -76 -64 -33 -16 -69 -36 -79 -46 -15 -13 -21 -14 -31 -4 -9 9 -8
18 6 42 33 59 12 84 -23 27 -11 -18 -20 -43 -20 -56 0 -12 -18 -57 -40 -98
-38 -73 -45 -109 -14 -83 8 6 14 16 14 21 0 5 5 14 11 21 5 7 19 27 30 45 10
18 29 36 42 41 12 5 38 20 57 33 39 27 125 48 185 45 l40 -1 6 79 c7 95 17
129 57 187 34 50 55 88 48 88 -2 0 -37 -30 -76 -67z m-64 -188 c-8 -47 -26
-62 -26 -21 0 30 18 81 26 73 4 -3 3 -27 0 -52z"/>
<path d="M4300 3552 c0 -32 43 -152 55 -152 7 0 16 -7 19 -16 10 -26 7 -111
-6 -160 -10 -37 -17 -46 -39 -51 -30 -6 -42 -30 -39 -79 1 -18 -3 -35 -9 -39
-22 -13 -10 -48 35 -106 25 -32 47 -59 50 -59 3 0 -9 26 -26 58 -16 31 -30 67
-30 80 0 27 32 93 55 112 31 26 55 88 55 143 0 54 -34 157 -51 157 -5 0 -9 6
-9 14 0 7 -7 19 -15 26 -8 7 -15 20 -15 29 0 21 -29 62 -30 43z"/>
<path d="M1106 3432 c-3 -6 -1 -14 5 -17 15 -10 25 3 12 16 -7 7 -13 7 -17 1z"/>
<path d="M4627 3176 c1 -91 -1 -105 -16 -109 -9 -2 -22 -22 -29 -43 -11 -34
-62 -104 -77 -104 -11 0 -4 35 12 52 9 10 12 18 6 18 -15 0 -49 -41 -77 -94
-31 -59 -32 -66 -6 -66 13 0 18 -5 14 -15 -7 -18 23 -68 35 -60 5 2 12 20 15
38 3 19 17 44 31 57 34 32 102 139 110 173 7 28 19 35 30 17 13 -20 -19 -98
-71 -176 -36 -55 -57 -98 -64 -132 -5 -28 -15 -60 -21 -70 -10 -16 -8 -28 9
-64 12 -24 22 -52 22 -61 0 -9 12 -29 26 -44 22 -24 25 -34 19 -68 -7 -43 -7
-47 -3 -85 3 -23 0 -25 -35 -24 -34 1 -37 -1 -31 -19 7 -23 9 -25 67 -75 21
-18 42 -30 46 -27 22 13 20 142 -4 291 l-6 39 16 -28 c25 -44 47 -165 41 -227
-20 -193 -23 -179 50 -259 22 -23 22 -23 33 -3 13 25 15 89 2 96 -22 14 -32
93 -23 181 8 84 7 92 -13 125 -12 19 -28 59 -34 88 -7 29 -24 68 -37 88 -38
56 -64 111 -64 137 0 14 21 51 49 86 64 80 75 114 75 236 l1 100 -45 68 c-24
37 -47 67 -50 67 -3 0 -4 -47 -3 -104z"/>
<path d="M696 3225 c-3 -8 -1 -15 4 -15 6 0 10 7 10 15 0 8 -2 15 -4 15 -2 0
-6 -7 -10 -15z"/>
<path d="M523 3038 c-13 -26 -36 -55 -53 -64 -31 -19 -60 -68 -60 -101 1 -31
38 -103 55 -103 8 0 15 7 15 16 0 10 6 14 14 11 10 -4 15 9 19 53 4 32 14 79
22 104 9 26 15 66 13 89 l-3 42 -22 -47z m-52 -201 c-17 -17 -25 22 -10 50
l14 27 3 -34 c2 -18 -1 -37 -7 -43z"/>
<path d="M270 2898 c0 -19 2 -20 10 -8 13 19 13 30 0 30 -5 0 -10 -10 -10 -22z"/>
<path d="M555 2838 c9 -51 39 -137 58 -163 21 -28 37 -9 35 41 -1 33 -7 47
-23 58 -13 8 -31 35 -41 60 -24 58 -38 59 -29 4z"/>
<path d="M290 2823 c0 -10 -4 -24 -9 -32 -7 -11 -12 -7 -25 15 l-15 29 0 -45
c0 -25 4 -63 10 -85 6 -22 14 -63 19 -90 4 -28 22 -77 40 -110 18 -33 33 -76
34 -96 1 -37 -30 -119 -45 -119 -14 0 -39 -70 -39 -109 0 -43 26 -128 46 -152
8 -8 14 -21 14 -27 0 -7 5 -12 11 -12 7 0 8 34 4 106 -4 72 -2 104 5 99 5 -3
10 1 10 10 0 8 11 38 25 65 19 38 25 65 25 117 0 69 -10 95 -81 223 -20 37
-26 75 -9 65 12 -8 91 -131 108 -168 14 -33 16 -106 2 -141 -13 -34 -2 -33 37
4 18 17 44 34 58 40 14 5 25 17 25 28 0 34 -40 95 -92 142 -62 55 -101 121
-119 203 -7 35 -17 57 -26 57 -7 0 -13 -8 -13 -17z"/>
<path d="M4815 2390 c-4 -6 -15 -10 -26 -10 -26 0 -24 -15 9 -61 26 -38 28
-39 72 -33 25 4 46 8 48 9 6 6 -26 60 -44 76 -26 22 -52 30 -59 19z"/>
<path d="M124 2112 c-6 -4 -15 -22 -19 -39 -5 -27 -4 -33 10 -33 13 0 16 6 13
25 -3 13 -1 26 5 28 5 1 8 8 6 15 -2 6 -9 8 -15 4z"/>
<path d="M4791 1865 c1 -19 18 -51 18 -35 0 8 -4 22 -9 30 -5 8 -9 11 -9 5z"/>
<path d="M87 1683 c-12 -12 -7 -50 8 -63 12 -10 16 -9 21 4 13 33 -10 79 -29
59z"/>
</g>
</svg>
